<!-- Generator: Adobe Illustrator 22.1.0, SVG Export Plug-In  -->
<svg version="1.1"
	 xmlns="http://www.w3.org/2000/svg" xmlns:xlink="http://www.w3.org/1999/xlink" xmlns:a="http://ns.adobe.com/AdobeSVGViewerExtensions/3.0/"
	 x="0px" y="0px" width="590.588px" height="149.864px" viewBox="0 0 590.588 149.864"
	 style="enable-background:new 0 0 590.588 149.864;" xml:space="preserve">
<style type="text/css">
	.st0{fill:none;}
	.st1{fill:#242825;}
</style>
<defs>
</defs>
<g>
	<rect y="0" class="st0" width="590.588" height="149.864"/>
	<path class="st1" d="M7.499,39.781H2.34v-5.7h5.819l1.021-8.22H3.72v-5.76H9.9l1.5-11.52h5.1l-1.38,11.52h7.56l1.5-11.52h5.1
		l-1.319,11.52h5.34v5.76h-6.061l-1.02,8.22h5.699v5.7h-6.359l-1.56,13.02h-5.28l1.561-13.02h-7.5l-1.62,13.02H5.94L7.499,39.781z
		 M20.939,34.081l1.021-8.22H14.4l-1.021,8.22H20.939z"/>
	<path class="st1" d="M40.799,8.402h8.88v44.398h-8.88V8.402z"/>
	<path class="st1" d="M59.878,19.202h7.2l0.6,4.439h0.24c2.939-2.88,6.359-5.279,10.92-5.279c7.259,0,10.379,5.039,10.379,13.499
		v20.939h-8.819V32.941c0-5.16-1.44-7.02-4.74-7.02c-2.76,0-4.499,1.319-7.02,3.779v23.1h-8.76V19.202z"/>
	<path class="st1" d="M99.598,41.041v-14.88h-4.74v-6.539l5.16-0.42l1.02-9h7.38v9h8.28v6.959h-8.28v14.88
		c0,3.84,1.561,5.64,4.561,5.64c1.079,0,2.399-0.36,3.3-0.72l1.439,6.42c-1.8,0.6-4.14,1.26-7.08,1.26
		C102.657,53.641,99.598,48.601,99.598,41.041z"/>
	<path class="st1" d="M123.537,19.202h7.2l0.6,5.939h0.24c2.46-4.38,6.06-6.779,9.539-6.779c1.86,0,2.94,0.3,3.96,0.72l-1.56,7.619
		c-1.14-0.359-2.1-0.54-3.479-0.54c-2.641,0-5.82,1.74-7.74,6.601v20.039h-8.76V19.202z"/>
	<path class="st1" d="M146.877,36.062c0-11.22,7.739-17.699,16.14-17.699c8.399,0,16.139,6.479,16.139,17.699
		c0,11.1-7.739,17.579-16.139,17.579C154.616,53.641,146.877,47.161,146.877,36.062z M170.156,36.062c0-6.36-2.58-10.5-7.14-10.5
		c-4.561,0-7.14,4.14-7.14,10.5c0,6.3,2.579,10.379,7.14,10.379C167.576,46.44,170.156,42.361,170.156,36.062z"/>
	<path class="st1" d="M184.616,36.062c0-10.979,6.84-17.699,14.1-17.699c3.78,0,6.12,1.439,8.52,3.659l-0.359-5.279V4.923h8.819
		v47.878h-7.14l-0.72-3.48h-0.181c-2.46,2.4-5.819,4.32-9.3,4.32C190.017,53.641,184.616,47.041,184.616,36.062z M206.876,42.901
		v-14.76c-2.04-1.86-4.141-2.52-6.24-2.52c-3.779,0-6.96,3.6-6.96,10.319c0,6.96,2.521,10.439,6.96,10.439
		C202.976,46.381,204.956,45.421,206.876,42.901z"/>
	<path class="st1" d="M224.817,40.201V19.202h8.819v19.859c0,5.22,1.439,7.02,4.68,7.02c2.76,0,4.56-1.2,6.84-4.2V19.202h8.819
		v33.599h-7.199l-0.66-4.8h-0.24c-2.88,3.42-6.119,5.64-10.739,5.64C227.936,53.641,224.817,48.601,224.817,40.201z"/>
	<path class="st1" d="M261.296,36.062c0-11.22,8.04-17.699,17.159-17.699c4.14,0,7.319,1.619,9.779,3.72l-4.199,5.699
		c-1.68-1.439-3.24-2.22-5.16-2.22c-5.1,0-8.579,4.14-8.579,10.5c0,6.3,3.479,10.379,8.339,10.379c2.4,0,4.681-1.14,6.54-2.699
		l3.479,5.819c-3.18,2.82-7.259,4.08-10.979,4.08C268.376,53.641,261.296,47.161,261.296,36.062z"/>
	<path class="st1" d="M295.556,41.041v-14.88h-4.74v-6.539l5.16-0.42l1.02-9h7.38v9h8.28v6.959h-8.28v14.88
		c0,3.84,1.561,5.64,4.561,5.64c1.079,0,2.399-0.36,3.3-0.72l1.439,6.42c-1.8,0.6-4.14,1.26-7.08,1.26
		C298.615,53.641,295.556,48.601,295.556,41.041z"/>
	<path class="st1" d="M318.656,9.002c0-2.88,2.22-4.8,5.279-4.8c3,0,5.22,1.92,5.22,4.8c0,2.76-2.22,4.8-5.22,4.8
		C320.876,13.802,318.656,11.762,318.656,9.002z M319.496,19.202h8.76v33.599h-8.76V19.202z"/>
	<path class="st1" d="M335.635,36.062c0-11.22,7.74-17.699,16.14-17.699s16.14,6.479,16.14,17.699c0,11.1-7.74,17.579-16.14,17.579
		S335.635,47.161,335.635,36.062z M358.914,36.062c0-6.36-2.58-10.5-7.14-10.5s-7.14,4.14-7.14,10.5c0,6.3,2.58,10.379,7.14,10.379
		S358.914,42.361,358.914,36.062z"/>
	<path class="st1" d="M375.295,19.202h7.199l0.601,4.439h0.239c2.94-2.88,6.36-5.279,10.92-5.279c7.26,0,10.38,5.039,10.38,13.499
		v20.939h-8.82V32.941c0-5.16-1.439-7.02-4.739-7.02c-2.76,0-4.5,1.319-7.02,3.779v23.1h-8.76V19.202z"/>
</g>
</svg>